HIERARCHY
ROOT Hips
{
	OFFSET 0.000000 0.000000 0.000000
	CHANNELS 6 Xposition Yposition Zposition Zrotation Yrotation Xrotation 
	JOINT LHipJoint
	{
		OFFSET 0.000000 0.000000 0.000000
		CHANNELS 3 Zrotation Yrotation Xrotation
		JOINT LeftUpLeg
		{
			OFFSET 1.363060 -1.794630 0.839290
			CHANNELS 3 Zrotation Yrotation Xrotation
			JOINT LeftLeg
			{
				OFFSET 2.448110 -6.726130 0.000000
				CHANNELS 3 Zrotation Yrotation Xrotation
				JOINT LeftFoot
				{
					OFFSET 2.562200 -7.039590 0.000000
					CHANNELS 3 Zrotation Yrotation Xrotation
					JOINT LeftToeBase
					{
						OFFSET 0.157640 -0.433110 2.322550
						CHANNELS 3 Zrotation Yrotation Xrotation
						End Site
						{
							OFFSET 0.000000 0.000000 0.000000
						}
					}
				}
			}
		}
	}
	JOINT RHipJoint
	{
		OFFSET 0.000000 0.000000 0.000000
		CHANNELS 3 Zrotation Yrotation Xrotation
		JOINT RightUpLeg
		{
			OFFSET -1.305520 -1.794630 0.839290
			CHANNELS 3 Zrotation Yrotation Xrotation
			JOINT RightLeg
			{
				OFFSET -2.542530 -6.985550 0.000000
				CHANNELS 3 Zrotation Yrotation Xrotation
				JOINT RightFoot
				{
					OFFSET -2.568260 -7.056230 0.000000
					CHANNELS 3 Zrotation Yrotation Xrotation
					JOINT RightToeBase
					{
						OFFSET -0.164730 -0.452590 2.363150
						CHANNELS 3 Zrotation Yrotation Xrotation
						End Site
						{
							OFFSET 0.000000 0.000000 0.000000
						}
					}
				}
			}
		}
	}
	JOINT LowerBack
	{
		OFFSET 0.000000 0.000000 0.000000
		CHANNELS 3 Zrotation Yrotation Xrotation
		JOINT Spine
		{
			OFFSET 0.028270 2.035590 -0.193380
			CHANNELS 3 Zrotation Yrotation Xrotation
			JOINT Spine1
			{
				OFFSET 0.056720 2.048850 -0.042750
				CHANNELS 3 Zrotation Yrotation Xrotation
				JOINT Neck
				{
					OFFSET 0.000000 0.000000 0.000000
					CHANNELS 3 Zrotation Yrotation Xrotation
					JOINT Neck1
					{
						OFFSET -0.054170 1.746240 0.172020
						CHANNELS 3 Zrotation Yrotation Xrotation
						JOINT Head
						{
							OFFSET 0.104070 1.761360 -0.123970
							CHANNELS 3 Zrotation Yrotation Xrotation
							End Site
							{
								OFFSET 0.000000 0.000000 0.000000
							}
						}
					}
				}
				JOINT LeftShoulder
				{
					OFFSET 0.000000 0.000000 0.000000
					CHANNELS 3 Zrotation Yrotation Xrotation
					JOINT LeftArm
					{
						OFFSET 3.362410 1.200890 -0.311210
						CHANNELS 3 Zrotation Yrotation Xrotation
						JOINT LeftForeArm
						{
							OFFSET 4.983000 -0.000000 -0.000000
							CHANNELS 3 Zrotation Yrotation Xrotation
							JOINT LeftHand
							{
								OFFSET 3.483560 -0.000000 -0.000000
								CHANNELS 3 Zrotation Yrotation Xrotation
								JOINT LeftFingerBase
								{
									OFFSET 0.000000 0.000000 0.000000
									CHANNELS 3 Zrotation Yrotation Xrotation
									JOINT LeftHandIndex1
									{
										OFFSET 0.715260 -0.000000 -0.000000
										CHANNELS 3 Zrotation Yrotation Xrotation
										End Site
										{
											OFFSET 0.000000 0.000000 0.000000
										}
									}
								}
								JOINT LThumb
								{
									OFFSET 0.000000 0.000000 0.000000
									CHANNELS 3 Zrotation Yrotation Xrotation
									End Site
									{
										OFFSET 0.000000 0.000000 0.000000
									}
								}
							}
						}
					}
				}
				JOINT RightShoulder
				{
					OFFSET 0.000000 0.000000 0.000000
					CHANNELS 3 Zrotation Yrotation Xrotation
					JOINT RightArm
					{
						OFFSET -3.136600 1.374050 -0.404650
						CHANNELS 3 Zrotation Yrotation Xrotation
						JOINT RightForeArm
						{
							OFFSET -5.241900 -0.000000 -0.000000
							CHANNELS 3 Zrotation Yrotation Xrotation
							JOINT RightHand
							{
								OFFSET -3.444170 -0.000000 -0.000000
								CHANNELS 3 Zrotation Yrotation Xrotation
								JOINT RightFingerBase
								{
									OFFSET 0.000000 0.000000 0.000000
									CHANNELS 3 Zrotation Yrotation Xrotation
									JOINT RightHandIndex1
									{
										OFFSET -0.622530 -0.000000 -0.000000
										CHANNELS 3 Zrotation Yrotation Xrotation
										End Site
										{
											OFFSET 0.000000 0.000000 0.000000
										}
									}
								}
								JOINT RThumb
								{
									OFFSET 0.000000 0.000000 0.000000
									CHANNELS 3 Zrotation Yrotation Xrotation
									End Site
									{
										OFFSET 0.000000 0.000000 0.000000
									}
								}
							}
						}
					}
				}
			}
		}
	}
}
MOTION
Frames: 12
Frame Time: 0.008333
10.632538 16.524775 -5.287598 -176.971574 -6.517256 -176.743281 -0.814189 8.053365 -1.190237 -19.874696 -15.466359 -17.906671 -5.189797 3.189853 38.589176 5.966992 4.130358 -8.580719 -1.797775 5.780819 -9.693509 4.687441 -9.882985 3.527769 16.041648 19.399140 -43.022764 -3.058982 -7.071441 49.086819 7.998670 -3.792663 -0.331713 1.995684 -9.978398 -6.699019 -1.681460 0.505792 9.066232 5.015781 -0.086609 -5.962410 3.419604 -2.000782 7.597718 -3.522730 1.029162 -12.762662 4.639273 1.031871 12.839313 -16.099775 8.717574 15.031678 5.110549 1.398521 6.289539 -68.848084 -49.223376 1.015686 -175.773792 -78.216966 162.487233 10.554947 23.283260 -1.285886 -0.000001 -0.000002 -0.000000 0.000000 0.000000 0.000000 0.000000 -0.000000 -0.000000 -6.040342 2.335516 0.295736 67.124025 19.950152 7.382921 -19.415521 81.180088 -7.789202 6.459661 0.317747 0.162427 0.000000 0.000002 -0.000000 -0.000000 0.000000 -0.000000 -0.000000 -0.000000 -0.000000 
10.433468 16.604054 -5.336877 -176.749059 -6.442821 -176.297891 -0.692159 7.996286 -1.268966 -20.330289 -14.188927 -17.753429 -5.366561 2.908494 37.208575 4.272862 3.136504 -7.615237 -1.700836 5.597717 -8.943175 4.032642 -10.009767 3.405755 18.281260 19.871320 -41.630382 -2.266671 -5.700999 45.352835 9.630583 -2.468541 0.131137 1.631695 -8.730532 -6.024236 -1.375347 0.579300 9.253849 5.059807 -0.315153 -6.151458 3.506185 -2.242043 7.465329 -3.634198 1.138440 -12.766410 4.787677 1.150817 12.786542 -16.573538 9.351557 14.526720 4.864795 1.383954 6.549094 -69.193896 -50.527928 0.963479 -175.449608 -77.751195 163.512738 9.923236 22.319181 -1.353681 -0.000001 -0.000002 -0.000000 -0.000000 0.000000 -0.000000 -0.000000 0.000000 -0.000000 -6.165772 2.378016 0.110040 67.090125 18.704465 6.662090 -19.507088 81.474504 -9.603561 5.087729 -1.914407 -0.278342 0.000000 0.000002 -0.000000 0.000000 0.000000 0.000000 0.000000 0.000000 -0.000000 
10.236291 16.685886 -5.389354 -176.507888 -6.573638 -175.894670 -0.645866 7.887450 -1.364470 -20.293829 -14.130675 -17.151991 -4.622311 5.214764 34.670154 1.782460 0.487686 -5.967794 -1.211136 4.346226 -6.285588 3.483890 -10.100241 3.369739 20.583465 19.837829 -40.237928 -1.661858 -4.021233 41.331802 11.992040 -1.286017 1.182837 1.878961 -8.430868 -4.368650 -1.088592 0.664091 9.448982 5.183368 -0.682779 -6.346158 2.978107 -2.272578 7.282100 -3.138723 1.385990 -12.686079 4.965270 1.270989 12.764620 -16.548516 9.867153 13.892938 5.237879 1.042580 6.571921 -69.511273 -51.516834 0.920071 -175.061478 -77.318490 163.834349 10.432766 21.715964 -1.229640 -0.000001 -0.000002 -0.000000 0.000000 0.000000 0.000000 0.000000 0.000000 -0.000000 -5.560419 2.245500 0.037031 66.970486 17.476240 5.507787 -16.652735 81.853302 -5.574731 4.032072 -0.130470 0.038748 0.000000 0.000002 -0.000000 -0.000000 -0.000000 0.000000 0.000000 -0.000000 0.000000 
10.048994 16.752252 -5.442883 -176.308943 -6.846627 -175.526880 -0.281909 7.802902 -1.560896 -21.638188 -11.108297 -17.262240 -4.217383 3.964955 33.793488 -0.703487 -1.344384 -4.320646 -1.319412 4.671604 -6.682892 2.727184 -10.071494 3.390833 22.839010 19.912171 -38.733057 -0.833368 -2.050158 37.218677 13.956060 -0.880504 2.325387 1.571049 -6.440729 -2.459915 -0.889611 0.719118 9.610715 5.165758 -0.987976 -6.439995 3.938152 -3.004384 6.799446 -3.920043 1.316970 -12.388138 5.113699 1.343040 12.654936 -17.630650 10.828993 14.970658 4.523191 0.973323 6.602682 -69.958227 -52.283941 1.139877 -176.033739 -76.930541 165.343008 10.863330 21.483519 -1.142228 -0.000001 -0.000002 -0.000000 -0.000000 0.000000 -0.000000 0.000000 -0.000000 0.000000 -6.517937 2.509761 0.002157 66.997538 16.142621 4.931925 -17.413896 82.018257 -6.428659 4.295124 -0.423647 -0.009981 0.000000 0.000002 -0.000000 -0.000000 -0.000000 0.000000 -0.000000 -0.000000 0.000000 
9.861697 16.819970 -5.495420 -176.046097 -7.157436 -175.229624 -0.220222 7.631941 -1.748944 -21.569316 -10.414513 -16.722184 -4.550980 4.572291 32.106557 -2.063222 -2.495799 -3.220142 -0.622818 2.336210 -5.049088 2.248922 -10.002641 3.292512 24.520028 19.882253 -37.095927 -0.747288 -1.278597 32.780568 16.948454 0.195087 3.636004 2.061084 -5.127227 1.454310 -0.714302 0.774381 9.871815 5.353366 -1.360748 -6.708529 3.556529 -3.157792 6.749456 -3.587937 1.554484 -12.439481 5.393889 1.495288 12.691874 -17.425701 11.655426 14.465879 4.665503 0.740333 6.643346 -70.443865 -53.077118 1.707575 -175.986526 -76.503388 165.335966 11.147865 21.553022 -1.095358 -0.000001 -0.000002 -0.000000 0.000000 0.000000 0.000000 -0.000000 -0.000000 0.000000 -6.019641 2.347366 -0.019771 67.263864 15.251555 4.264274 -15.782365 82.218426 -5.211641 4.516539 -0.570812 -0.034049 0.000000 0.000002 -0.000000 0.000000 -0.000000 -0.000000 -0.000000 0.000000 0.000000 
9.675465 16.875676 -5.556231 -175.738595 -7.489002 -174.925261 0.025994 7.576432 -1.860423 -22.123360 -8.130619 -16.816314 -4.426327 4.191628 31.036987 -4.223046 -4.379610 -1.937724 -0.408843 1.541884 -4.957089 1.655939 -9.989908 3.258028 26.582880 19.565926 -35.464345 -0.768626 -0.091869 28.393855 20.020267 1.073185 5.031625 2.964614 -5.627740 4.579791 -0.488887 0.831333 9.906147 5.495870 -1.793790 -6.859161 2.880203 -3.392997 6.898513 -2.979034 1.663918 -12.617188 5.726103 1.492178 12.722020 -17.936435 12.618480 14.768526 5.122388 0.691342 6.559277 -71.084723 -53.710618 2.778138 -176.950123 -76.101421 167.969840 10.848565 20.563616 -1.101770 -0.000001 -0.000002 -0.000000 -0.000000 -0.000000 0.000000 -0.000000 0.000000 -0.000000 -5.292057 2.246704 -0.030485 67.736170 14.585416 4.051171 -16.396738 82.285765 -6.495281 4.393948 -1.528480 -0.207626 0.000000 0.000002 -0.000000 -0.000000 0.000000 0.000000 0.000000 -0.000000 0.000000 
9.491922 16.920721 -5.616291 -175.477615 -8.016473 -174.780104 0.336079 7.620811 -2.117638 -22.798787 -6.040045 -16.505699 -4.288963 3.998072 29.940212 -6.834423 -6.211335 -0.426047 -0.410751 1.494961 -6.028139 0.905412 -9.932197 3.252350 28.727099 19.017438 -33.626674 -0.787885 1.273414 23.721915 22.585670 1.561287 6.801233 4.248497 -6.911433 8.656028 -0.245502 0.868973 10.080673 5.493348 -2.064182 -6.982992 3.094322 -3.700854 6.395991 -3.138152 1.662391 -12.205213 6.037089 1.480894 12.730728 -18.811921 13.275587 15.538595 5.004377 0.105298 6.710943 -71.815004 -54.019705 3.860784 -178.111249 -75.711435 170.151120 10.552095 20.087519 -1.127835 -0.000001 -0.000002 -0.000000 -0.000000 -0.000000 -0.000000 0.000000 -0.000000 0.000000 -5.515356 2.056781 0.016451 68.361111 13.329165 3.789894 -16.859322 82.340984 -6.826081 4.664291 -1.418332 -0.187090 0.000000 0.000002 -0.000000 0.000000 0.000000 0.000000 -0.000000 0.000000 -0.000000 
9.308003 16.954204 -5.682553 -175.276137 -8.649671 -174.635022 0.837569 7.666561 -2.329241 -23.619700 -4.418937 -16.036606 -4.351142 3.918596 28.820860 -8.772905 -7.743438 1.014018 0.251252 -0.867233 -6.938799 -0.019212 -9.764885 3.323236 30.431345 19.080419 -31.640331 -0.720188 2.399163 18.674081 24.936790 1.160008 8.546415 5.086413 -8.349121 10.897283 0.017495 0.850226 10.076718 5.383275 -2.506386 -6.959344 3.094010 -4.079018 5.991020 -3.069396 1.788549 -11.842686 6.388724 1.560044 12.714284 -19.168281 14.096358 15.219058 5.288705 -0.335204 6.681616 -72.629544 -54.175910 4.921393 -179.249052 -75.341857 171.392355 9.998164 20.311999 -1.230306 -0.000001 -0.000002 -0.000000 0.000000 -0.000000 -0.000000 -0.000000 -0.000000 -0.000000 -5.635792 2.039157 -0.029834 69.068101 12.050936 3.734714 -18.765871 82.308792 -8.130599 5.193675 -1.041948 -0.115228 0.000000 0.000002 -0.000000 -0.000000 0.000000 0.000000 -0.000000 -0.000000 0.000000 
9.126532 16.975075 -5.748919 -175.283720 -9.167830 -174.413422 0.903945 7.463906 -2.424172 -24.012287 -2.654752 -16.133970 -4.625469 3.448776 28.706192 -9.965336 -8.606382 2.030420 1.480331 -4.863768 -8.813508 -0.357109 -9.542283 3.244138 31.303332 18.749558 -30.915318 -0.423984 3.783663 16.334280 26.858970 1.292432 9.537583 6.182253 -10.744923 13.690485 0.066400 0.892706 10.055447 5.414537 -2.855501 -7.107255 2.991780 -4.349613 5.712908 -2.967427 1.948002 -11.675597 6.635279 1.669026 12.964558 -18.814001 14.742094 14.772296 5.378258 -0.659725 6.602477 -73.610338 -54.207626 6.724398 179.280017 -75.192141 174.000447 10.094886 19.807777 -1.187381 -0.000001 -0.000002 -0.000000 0.000000 0.000000 -0.000000 -0.000000 0.000000 -0.000000 -5.525255 1.935457 0.042309 69.688955 11.188477 3.897153 -21.770614 82.615816 -11.101798 5.280388 -1.450572 -0.191499 0.000000 0.000002 -0.000000 -0.000000 0.000000 0.000000 0.000000 -0.000000 -0.000000 
8.946006 16.974925 -5.825240 -175.237471 -9.639546 -174.342744 1.221249 7.582593 -2.404611 -24.465470 -1.768316 -15.950625 -4.493269 4.115048 28.516186 -11.392707 -9.862898 3.222004 2.208524 -6.552903 -12.190755 -0.708104 -9.794931 3.300787 32.032628 19.358451 -30.255650 -0.170498 4.773700 14.985967 28.422635 1.685927 10.049689 6.380631 -10.644014 14.910752 0.234085 0.984888 9.920873 5.336325 -3.182320 -7.130967 3.005418 -4.682313 5.483902 -2.958394 2.082040 -11.497207 6.859767 1.770177 13.248256 -19.093907 15.665596 15.023355 5.507210 -0.854846 6.634487 -74.772956 -54.239530 8.633970 178.171857 -75.125475 175.535440 9.633736 19.994661 -1.272183 -0.000001 -0.000002 -0.000000 -0.000000 0.000000 -0.000000 -0.000000 0.000000 -0.000000 -5.632892 1.875735 0.145938 70.444615 10.402346 4.169471 -25.776840 83.040733 -15.980996 6.366140 -2.854975 -0.466785 0.000000 0.000002 -0.000000 -0.000000 -0.000000 -0.000000 0.000000 0.000000 0.000000 
8.768574 16.972673 -5.892072 -175.295693 -9.949697 -174.262148 1.534082 7.526767 -2.391849 -25.039784 -0.354628 -15.962404 -4.515770 4.307294 28.541222 -13.199995 -10.662635 4.386671 2.413716 -6.799863 -14.012156 -1.090010 -9.814500 3.018469 32.720488 19.796941 -29.295007 0.238893 6.637413 13.898277 28.778394 1.767668 9.948433 6.534961 -11.308706 14.988319 0.260406 1.039166 9.958399 5.240380 -3.405759 -7.215314 3.011474 -4.886551 5.431341 -2.910599 2.024619 -11.547859 7.056890 1.696456 13.488771 -20.102219 16.206820 15.333714 5.726423 -0.977927 6.622543 -75.953856 -54.486302 10.607741 176.825285 -75.072145 176.733806 9.927889 20.537488 -1.254344 -0.000001 -0.000002 -0.000000 0.000000 -0.000000 0.000000 0.000000 -0.000000 0.000000 -5.731209 1.681144 0.205391 71.205032 9.832773 4.426609 -30.039804 83.437419 -20.658674 7.052664 -3.794055 -0.665741 0.000000 0.000002 -0.000000 0.000000 0.000000 -0.000000 0.000000 -0.000000 0.000000 
8.578213 16.971622 -5.973814 -175.248491 -10.605555 -174.158558 1.749601 7.570676 -2.330029 -25.248146 -0.130328 -15.621210 -4.479642 5.264423 28.245820 -14.507105 -11.595286 5.526016 2.003172 -5.875249 -12.584379 -1.507603 -10.097749 3.339686 33.131188 20.821363 -28.876069 0.713478 8.640197 12.838169 28.895928 1.453853 9.557062 6.119357 -9.459389 14.848451 0.607100 1.086872 9.652652 5.103587 -3.858691 -7.160895 2.815018 -5.220088 5.261369 -2.777036 2.164178 -11.391869 7.273007 1.777334 13.787012 -20.111026 16.916626 15.093409 5.958126 -1.277846 6.433784 -77.090718 -54.294464 12.837462 174.450883 -75.035475 -179.812608 9.224247 20.189742 -1.350613 -0.000001 -0.000002 -0.000000 0.000000 0.000000 0.000000 0.000000 -0.000000 -0.000000 -5.675214 1.568981 0.339921 71.900657 9.082334 4.777474 -35.508040 83.729848 -25.895368 7.861042 -4.031913 -0.731444 0.000000 0.000002 -0.000000 0.000000 -0.000000 0.000000 0.000000 -0.000000 0.000000 
